<svg width="15" height="14" viewBox="0 0 15 14" fill="none" xmlns="http://www.w3.org/2000/svg">
<path d="M7.10994 12.8337C5.95623 12.8337 4.82841 12.4915 3.86912 11.8506C2.90983 11.2096 2.16216 10.2986 1.72065 9.23263C1.27914 8.16676 1.16362 6.99385 1.3887 5.8623C1.61378 4.73075 2.16935 3.69134 2.98516 2.87554C3.80096 2.05973 4.84036 1.50416 5.97192 1.27908C7.10347 1.054 8.27638 1.16952 9.34225 1.61103C10.4082 2.05255 11.3192 2.80022 11.9602 3.7595C12.6012 4.71879 12.9433 5.84661 12.9433 7.00033C12.9433 8.54744 12.3287 10.0312 11.2348 11.1251C10.1408 12.2191 8.65706 12.8337 7.10994 12.8337ZM7.10994 2.33366C6.187 2.33366 5.28472 2.60736 4.51729 3.12014C3.74986 3.63292 3.15172 4.36175 2.79851 5.21447C2.4453 6.06717 2.35289 7.00552 2.53295 7.91073C2.71301 8.81601 3.15747 9.64749 3.81012 10.3002C4.46276 10.9528 5.29428 11.3973 6.19954 11.5773C7.10475 11.7574 8.0431 11.665 8.89582 11.3117C9.74854 10.9585 10.4774 10.3604 10.9902 9.59301C11.5029 8.82558 11.7766 7.92333 11.7766 7.00033C11.7766 5.76265 11.285 4.57567 10.4098 3.7005C9.53463 2.82533 8.3476 2.33366 7.10994 2.33366Z" fill="white" fill-opacity="0.6"/>
<path d="M9.17494 9.8875L6.52661 7.23917V3.5H7.69328V6.76083L9.99745 9.065L9.17494 9.8875Z" fill="white" fill-opacity="0.6"/>
</svg>
