<svg width="11" height="16" viewBox="0 0 11 16" fill="none" xmlns="http://www.w3.org/2000/svg">
<path fill-rule="evenodd" clip-rule="evenodd" d="M4.55715 2.1001C2.04031 2.1001 0 4.14041 0 6.65725C0 9.17411 2.04031 11.2144 4.55715 11.2144C5.64577 11.2144 6.6452 10.8327 7.42903 10.1958L10.1953 12.962C10.3794 13.1461 10.6778 13.1461 10.8619 12.962C11.046 12.7779 11.046 12.4795 10.8619 12.2954L8.0957 9.52913C8.73257 8.7453 9.1143 7.74587 9.1143 6.65725C9.1143 4.14041 7.07402 2.1001 4.55715 2.1001ZM0.942859 6.65725C0.942859 4.66113 2.56103 3.04296 4.55715 3.04296C6.55324 3.04296 8.17144 4.66113 8.17144 6.65725C8.17144 8.65334 6.55324 10.2715 4.55715 10.2715C2.56103 10.2715 0.942859 8.65334 0.942859 6.65725Z" fill="#BFBFBF" fill-opacity="0.87"/>
</svg>
